<svg xmlns="http://www.w3.org/2000/svg" xmlns:xlink="http://www.w3.org/1999/xlink" width="600" zoomAndPan="magnify" viewBox="0 0 450 74.999997" height="100" preserveAspectRatio="xMidYMid meet" version="1.0"><defs><g/></defs><g fill="#000000" fill-opacity="1"><g transform="translate(0.000009, 52.931277)"><g><path d="M 31.65625 -6.578125 L 31.65625 0 L 4.203125 0 L 4.203125 -35.453125 L 30.984375 -35.453125 L 30.984375 -28.859375 L 12.359375 -28.859375 L 12.359375 -21.171875 L 28.8125 -21.171875 L 28.8125 -14.78125 L 12.359375 -14.78125 L 12.359375 -6.578125 Z M 31.65625 -6.578125 "/></g></g></g><g fill="#000000" fill-opacity="1"><g transform="translate(33.975499, 52.931277)"><g><path d="M 36.71875 -35.453125 L 36.71875 0 L 29.984375 0 L 12.3125 -21.515625 L 12.3125 0 L 4.203125 0 L 4.203125 -35.453125 L 10.984375 -35.453125 L 28.609375 -13.921875 L 28.609375 -35.453125 Z M 36.71875 -35.453125 "/></g></g></g><g fill="#000000" fill-opacity="1"><g transform="translate(74.887865, 52.931277)"><g><path d="M 11.546875 -28.765625 L 0.203125 -28.765625 L 0.203125 -35.453125 L 31.09375 -35.453125 L 31.09375 -28.765625 L 19.75 -28.765625 L 19.75 0 L 11.546875 0 Z M 11.546875 -28.765625 "/></g></g></g><g fill="#000000" fill-opacity="1"><g transform="translate(106.179733, 52.931277)"><g><path d="M 31.65625 -6.578125 L 31.65625 0 L 4.203125 0 L 4.203125 -35.453125 L 30.984375 -35.453125 L 30.984375 -28.859375 L 12.359375 -28.859375 L 12.359375 -21.171875 L 28.8125 -21.171875 L 28.8125 -14.78125 L 12.359375 -14.78125 L 12.359375 -6.578125 Z M 31.65625 -6.578125 "/></g></g></g><g fill="#000000" fill-opacity="1"><g transform="translate(140.155224, 52.931277)"><g><path d="M 26.78125 0 L 19.953125 -9.875 L 12.40625 -9.875 L 12.40625 0 L 4.203125 0 L 4.203125 -35.453125 L 19.546875 -35.453125 C 22.679688 -35.453125 25.40625 -34.925781 27.71875 -33.875 C 30.03125 -32.832031 31.8125 -31.347656 33.0625 -29.421875 C 34.3125 -27.492188 34.9375 -25.210938 34.9375 -22.578125 C 34.9375 -19.953125 34.300781 -17.679688 33.03125 -15.765625 C 31.769531 -13.859375 29.976562 -12.398438 27.65625 -11.390625 L 35.59375 0 Z M 26.640625 -22.578125 C 26.640625 -24.578125 25.992188 -26.109375 24.703125 -27.171875 C 23.421875 -28.234375 21.550781 -28.765625 19.09375 -28.765625 L 12.40625 -28.765625 L 12.40625 -16.40625 L 19.09375 -16.40625 C 21.550781 -16.40625 23.421875 -16.945312 24.703125 -18.03125 C 25.992188 -19.113281 26.640625 -20.628906 26.640625 -22.578125 Z M 26.640625 -22.578125 "/></g></g></g><g fill="#000000" fill-opacity="1"><g transform="translate(177.371297, 52.931277)"><g/></g></g><g fill="#000000" fill-opacity="1"><g transform="translate(191.700759, 52.931277)"><g><path d="M 11.546875 -28.765625 L 0.203125 -28.765625 L 0.203125 -35.453125 L 31.09375 -35.453125 L 31.09375 -28.765625 L 19.75 -28.765625 L 19.75 0 L 11.546875 0 Z M 11.546875 -28.765625 "/></g></g></g><g fill="#000000" fill-opacity="1"><g transform="translate(222.992627, 52.931277)"><g><path d="M 36.71875 -35.453125 L 36.71875 0 L 28.515625 0 L 28.515625 -14.53125 L 12.40625 -14.53125 L 12.40625 0 L 4.203125 0 L 4.203125 -35.453125 L 12.40625 -35.453125 L 12.40625 -21.46875 L 28.515625 -21.46875 L 28.515625 -35.453125 Z M 36.71875 -35.453125 "/></g></g></g><g fill="#000000" fill-opacity="1"><g transform="translate(263.904993, 52.931277)"><g><path d="M 31.65625 -6.578125 L 31.65625 0 L 4.203125 0 L 4.203125 -35.453125 L 30.984375 -35.453125 L 30.984375 -28.859375 L 12.359375 -28.859375 L 12.359375 -21.171875 L 28.8125 -21.171875 L 28.8125 -14.78125 L 12.359375 -14.78125 L 12.359375 -6.578125 Z M 31.65625 -6.578125 "/></g></g></g><g fill="#000000" fill-opacity="1"><g transform="translate(297.880483, 52.931277)"><g/></g></g><g fill="#000000" fill-opacity="1"><g transform="translate(312.209945, 52.931277)"><g><path d="M 38.28125 -35.453125 L 22.9375 0 L 14.84375 0 L -0.453125 -35.453125 L 8.40625 -35.453125 L 19.1875 -10.125 L 30.125 -35.453125 Z M 38.28125 -35.453125 "/></g></g></g><g fill="#000000" fill-opacity="1"><g transform="translate(348.818307, 52.931277)"><g><path d="M 21.375 0.609375 C 17.6875 0.609375 14.363281 -0.179688 11.40625 -1.765625 C 8.457031 -3.359375 6.144531 -5.546875 4.46875 -8.328125 C 2.800781 -11.117188 1.96875 -14.25 1.96875 -17.71875 C 1.96875 -21.195312 2.800781 -24.328125 4.46875 -27.109375 C 6.144531 -29.898438 8.457031 -32.085938 11.40625 -33.671875 C 14.363281 -35.265625 17.6875 -36.0625 21.375 -36.0625 C 25.050781 -36.0625 28.359375 -35.265625 31.296875 -33.671875 C 34.234375 -32.085938 36.546875 -29.898438 38.234375 -27.109375 C 39.921875 -24.328125 40.765625 -21.195312 40.765625 -17.71875 C 40.765625 -14.25 39.921875 -11.117188 38.234375 -8.328125 C 36.546875 -5.546875 34.234375 -3.359375 31.296875 -1.765625 C 28.359375 -0.179688 25.050781 0.609375 21.375 0.609375 Z M 21.375 -6.375 C 23.46875 -6.375 25.359375 -6.851562 27.046875 -7.8125 C 28.734375 -8.78125 30.054688 -10.125 31.015625 -11.84375 C 31.972656 -13.570312 32.453125 -15.53125 32.453125 -17.71875 C 32.453125 -19.914062 31.972656 -21.875 31.015625 -23.59375 C 30.054688 -25.320312 28.734375 -26.664062 27.046875 -27.625 C 25.359375 -28.582031 23.46875 -29.0625 21.375 -29.0625 C 19.28125 -29.0625 17.390625 -28.582031 15.703125 -27.625 C 14.015625 -26.664062 12.6875 -25.320312 11.71875 -23.59375 C 10.757812 -21.875 10.28125 -19.914062 10.28125 -17.71875 C 10.28125 -15.53125 10.757812 -13.570312 11.71875 -11.84375 C 12.6875 -10.125 14.015625 -8.78125 15.703125 -7.8125 C 17.390625 -6.851562 19.28125 -6.375 21.375 -6.375 Z M 21.375 -6.375 "/></g></g></g><g fill="#000000" fill-opacity="1"><g transform="translate(391.55348, 52.931277)"><g><path d="M 4.203125 -35.453125 L 12.40625 -35.453125 L 12.40625 0 L 4.203125 0 Z M 4.203125 -35.453125 "/></g></g></g><g fill="#000000" fill-opacity="1"><g transform="translate(408.16146, 52.931277)"><g><path d="M 4.203125 -35.453125 L 20.3125 -35.453125 C 24.15625 -35.453125 27.550781 -34.71875 30.5 -33.25 C 33.457031 -31.78125 35.753906 -29.710938 37.390625 -27.046875 C 39.035156 -24.378906 39.859375 -21.269531 39.859375 -17.71875 C 39.859375 -14.175781 39.035156 -11.070312 37.390625 -8.40625 C 35.753906 -5.738281 33.457031 -3.671875 30.5 -2.203125 C 27.550781 -0.734375 24.15625 0 20.3125 0 L 4.203125 0 Z M 19.90625 -6.734375 C 23.445312 -6.734375 26.269531 -7.71875 28.375 -9.6875 C 30.488281 -11.664062 31.546875 -14.34375 31.546875 -17.71875 C 31.546875 -21.09375 30.488281 -23.769531 28.375 -25.75 C 26.269531 -27.726562 23.445312 -28.71875 19.90625 -28.71875 L 12.40625 -28.71875 L 12.40625 -6.734375 Z M 19.90625 -6.734375 "/></g></g></g></svg>